<?xml version="1.0" standalone="no"?>
<!DOCTYPE svg PUBLIC "-//W3C//DTD SVG 20010904//EN"
 "http://www.w3.org/TR/2001/REC-SVG-20010904/DTD/svg10.dtd">
<svg version="1.0" xmlns="http://www.w3.org/2000/svg"
 width="755.000000pt" height="755.000000pt" viewBox="0 0 755.000000 755.000000"
 preserveAspectRatio="xMidYMid meet">
<metadata>
Created by potrace 1.14, written by Peter Selinger 2001-2017
</metadata>
<g transform="translate(0.000000,755.000000) scale(0.100000,-0.100000)"
fill="#000000" stroke="none">
<path d="M3872 6929 c-4 -3 -38 -11 -77 -18 -96 -17 -155 -44 -155 -71 0 -62
62 -115 122 -104 45 9 218 99 257 135 52 47 43 57 -55 61 -47 2 -88 0 -92 -3z"/>
<path d="M3538 6822 c-21 -9 -40 -23 -43 -30 -12 -32 56 -131 92 -132 6 0 19
15 30 33 18 31 18 33 1 67 -10 19 -18 45 -18 58 0 26 -12 27 -62 4z"/>
<path d="M3905 6752 c-100 -40 -121 -51 -123 -70 -5 -32 14 -51 59 -58 47 -8
51 -28 7 -41 -27 -7 -32 -13 -29 -33 7 -55 48 -53 84 4 32 52 33 56 7 56 -11
0 -20 7 -20 15 0 8 5 15 10 15 20 0 89 50 113 82 28 36 37 69 22 74 -5 1 -64
-19 -130 -44z"/>
<path d="M3369 6728 c-35 -24 -66 -45 -69 -48 -3 -3 -29 -23 -58 -45 -49 -37
-51 -41 -35 -53 12 -9 35 -12 65 -9 52 4 164 55 193 86 16 19 17 23 1 55 -9
19 -16 39 -16 45 0 18 -14 13 -81 -31z"/>
<path d="M3667 6682 c-20 -21 -56 -101 -57 -123 0 -10 9 -16 28 -16 15 0 50
-2 77 -4 l50 -3 -2 33 c0 18 -8 40 -17 50 -9 10 -16 27 -16 39 0 12 -9 26 -19
32 -25 13 -25 13 -44 -8z"/>
<path d="M3463 6602 c-29 -21 -52 -41 -53 -46 0 -12 57 -66 70 -66 6 0 28 11
50 25 35 22 40 30 40 62 0 34 -21 63 -45 62 -5 -1 -33 -17 -62 -37z"/>
<path d="M3120 6523 c-14 -15 -41 -47 -60 -71 -38 -48 -34 -59 26 -72 53 -12
115 17 177 82 26 28 47 54 47 58 0 5 -26 10 -57 13 -32 3 -69 8 -83 11 -19 6
-31 1 -50 -21z"/>
<path d="M3347 6491 c-9 -16 -42 -54 -72 -84 l-56 -56 38 -10 c21 -6 54 -11
73 -11 48 0 121 39 140 74 14 26 14 29 -4 40 -11 6 -36 26 -56 44 -21 17 -39
32 -42 32 -2 0 -11 -13 -21 -29z"/>
<path d="M3570 6482 c-29 -14 -36 -23 -38 -53 -2 -24 4 -44 19 -63 21 -27 25
-28 86 -23 63 5 78 -4 52 -30 -14 -14 22 -27 51 -18 21 7 27 30 10 40 -19 12
-10 33 20 45 17 7 42 26 56 43 23 28 24 30 7 42 -50 35 -207 45 -263 17z"/>
<path d="M2965 6320 c-29 -45 -24 -65 20 -94 41 -27 80 -13 120 42 19 26 35
50 35 55 0 4 -17 7 -37 7 -21 0 -51 7 -67 15 -40 21 -43 20 -71 -25z"/>
<path d="M3460 6325 c-19 -14 -43 -25 -54 -26 -12 0 -29 -4 -39 -8 -17 -6 -17
-8 4 -31 12 -14 28 -35 36 -47 9 -13 18 -23 22 -23 6 0 37 45 73 106 15 26 16
33 5 42 -10 9 -22 6 -47 -13z"/>
<path d="M2828 6281 c-36 -42 -98 -159 -98 -185 0 -7 8 -24 18 -36 13 -17 24
-20 45 -15 16 4 27 14 27 24 0 9 8 30 18 46 45 73 66 192 36 202 -7 2 -27 -14
-46 -36z"/>
<path d="M3175 6287 c-8 -12 -15 -25 -15 -28 0 -7 87 -59 99 -59 4 0 14 13 24
29 16 28 16 29 -6 43 -12 8 -37 20 -54 26 -29 10 -34 8 -48 -11z"/>
<path d="M3534 6258 c-12 -13 -33 -41 -48 -63 -24 -37 -25 -41 -9 -52 20 -16
104 -17 154 -3 57 16 104 52 104 80 0 29 -37 45 -127 55 -47 6 -56 4 -74 -17z"/>
<path d="M3316 6194 l-19 -26 32 -31 c28 -29 32 -30 47 -16 14 15 14 20 -5 58
-12 22 -25 41 -29 41 -4 0 -15 -12 -26 -26z"/>
<path d="M2916 6200 c-41 -122 -49 -159 -37 -174 21 -25 56 -19 91 17 53 54
53 57 0 117 -35 39 -50 51 -54 40z"/>
<path d="M3100 6185 c-13 -14 -29 -25 -37 -25 -22 0 -15 -23 20 -64 l33 -38
51 46 c29 26 50 52 47 59 -5 12 -67 47 -83 47 -4 0 -18 -11 -31 -25z"/>
<path d="M3201 6072 l-61 -57 26 -40 c15 -22 28 -41 30 -43 6 -8 131 133 127
143 -2 5 -17 20 -33 32 l-28 23 -61 -58z"/>
<path d="M3373 6050 c-24 -28 -43 -55 -43 -60 0 -15 112 -24 167 -12 59 12
103 37 103 59 0 19 -79 53 -138 58 -46 5 -48 4 -89 -45z"/>
<path d="M2671 5996 c-17 -37 -28 -73 -25 -78 10 -16 71 -38 87 -32 32 12 37
103 7 122 -12 7 -25 23 -29 35 -7 19 -12 14 -40 -47z"/>
<path d="M3011 6014 c-22 -25 -41 -52 -41 -60 0 -9 14 -29 30 -46 28 -27 35
-30 72 -24 22 4 49 11 59 16 17 9 16 12 -7 52 -14 24 -36 57 -48 75 l-24 32
-41 -45z"/>
<path d="M2810 6025 c-13 -15 -16 -83 -5 -94 8 -8 45 32 45 48 -1 9 -6 26 -14
39 -11 21 -14 22 -26 7z"/>
<path d="M2875 5928 c-15 -22 -15 -23 16 -26 37 -4 43 0 34 27 -8 27 -30 27
-50 -1z"/>
<path d="M3251 5920 c-18 -25 -21 -39 -17 -66 4 -18 11 -36 17 -40 14 -9 128
-8 170 1 46 10 79 28 112 60 40 41 22 57 -60 52 -58 -4 -84 -1 -168 18 -26 6
-33 2 -54 -25z"/>
<path d="M2606 5846 c-3 -13 -8 -30 -11 -38 -4 -9 9 -22 34 -36 21 -12 41 -22
44 -22 6 0 27 58 27 76 0 7 -13 15 -30 19 -16 4 -32 11 -35 16 -11 16 -23 10
-29 -15z"/>
<path d="M3115 5849 c-27 -11 -64 -17 -81 -15 -24 3 -40 -3 -65 -23 -30 -26
-31 -29 -14 -34 11 -3 71 -8 132 -12 130 -8 138 -3 103 64 -11 23 -21 40 -23
40 -1 -1 -24 -10 -52 -20z"/>
<path d="M2773 5845 c-12 -9 -27 -32 -33 -53 -15 -56 -13 -64 13 -57 40 13
116 54 152 82 l35 28 -27 6 c-53 12 -118 9 -140 -6z"/>
<path d="M3340 5762 c-41 -1 -79 -7 -83 -11 -12 -12 21 -79 45 -92 30 -16 84
-2 123 33 32 28 47 68 26 68 -5 0 -15 1 -23 3 -7 2 -47 1 -88 -1z"/>
<path d="M2570 5745 c0 -4 -41 -150 -56 -197 -8 -26 19 -23 54 6 25 22 100
144 90 149 -1 1 -22 12 -45 25 -24 12 -43 20 -43 17z"/>
<path d="M2843 5722 c-38 -18 -41 -32 -13 -57 19 -18 22 -18 56 -2 29 14 33
20 25 35 -19 35 -34 41 -68 24z"/>
<path d="M2950 5725 c0 -15 44 -45 80 -55 39 -11 123 0 161 21 41 22 2 34
-121 38 -66 2 -120 0 -120 -4z"/>
<path d="M2682 5640 c-13 -28 -20 -55 -17 -60 20 -32 166 -80 188 -62 7 7 29
9 49 6 52 -9 74 7 81 58 9 61 -10 74 -69 45 -42 -20 -44 -23 -38 -54 4 -19 2
-33 -3 -33 -6 0 -34 34 -64 75 -42 60 -59 75 -79 75 -20 0 -29 -9 -48 -50z"/>
<path d="M3170 5635 c-19 -7 -58 -14 -86 -14 -51 -1 -52 -2 -58 -36 -4 -20 -2
-44 5 -56 9 -18 17 -21 55 -16 46 5 194 70 194 85 0 14 -45 52 -61 51 -8 0
-30 -7 -49 -14z"/>
<path d="M2605 5530 c-21 -23 -10 -41 36 -66 38 -19 46 -18 51 10 4 18 -2 30
-21 43 -44 32 -48 33 -66 13z"/>
<path d="M3290 5533 c-8 -3 -50 -18 -92 -34 -43 -16 -93 -29 -111 -29 -31 0
-36 -4 -55 -47 -25 -59 -16 -83 32 -83 64 0 182 51 239 104 41 38 70 80 60 89
-7 8 -51 8 -73 0z"/>
<path d="M2518 5483 c-15 -4 -34 -50 -24 -60 7 -7 76 17 76 27 0 8 -29 42 -33
39 -1 -1 -9 -3 -19 -6z"/>
<path d="M2963 5480 c-18 -7 -23 -17 -23 -47 0 -21 4 -45 10 -53 7 -11 11 -8
19 15 6 17 16 38 21 47 12 21 13 48 3 47 -5 0 -18 -4 -30 -9z"/>
<path d="M2740 5459 c0 -54 59 -99 130 -99 28 0 30 2 30 38 0 57 -15 69 -92
75 -61 4 -68 2 -68 -14z"/>
<path d="M2591 5406 c-9 -11 -10 -20 -1 -35 14 -27 18 -26 55 3 34 27 33 31
-11 40 -21 5 -35 2 -43 -8z"/>
<path d="M2503 5370 c-14 -6 -23 -18 -24 -32 0 -13 -2 -40 -5 -60 -3 -21 -3
-38 -1 -38 22 0 97 44 97 57 0 13 -38 85 -43 82 -1 0 -12 -4 -24 -9z"/>
<path d="M2668 5335 c-60 -38 -64 -65 -9 -65 37 0 100 32 108 55 1 6 -9 17
-25 25 -26 15 -29 14 -74 -15z"/>
<path d="M2956 5317 c-24 -17 -47 -89 -34 -104 6 -7 28 -18 49 -23 72 -20 230
32 266 86 23 36 4 46 -67 37 -79 -10 -153 -8 -177 5 -15 8 -25 8 -37 -1z"/>
<path d="M2810 5294 l-32 -27 24 -13 c47 -24 59 -21 73 19 7 20 9 37 5 37 -5
0 -15 2 -23 6 -8 3 -29 -7 -47 -22z"/>
<path d="M2535 5215 l-60 -23 -3 -62 c-4 -89 -1 -94 49 -67 23 12 58 36 78 53
28 25 33 34 24 45 -6 8 -15 28 -20 45 l-8 31 -60 -22z"/>
<path d="M2678 5223 c-35 -5 -35 -17 -2 -48 40 -37 45 -35 58 28 7 29 6 29
-56 20z"/>
<path d="M2786 5202 c-15 -26 -16 -75 -1 -105 16 -35 87 -83 105 -72 5 3 24
27 41 52 33 47 29 62 -14 63 -10 0 -28 11 -40 23 -23 25 -84 51 -91 39z"/>
<path d="M3064 5139 c-35 -8 -47 -18 -78 -64 -20 -30 -36 -57 -36 -59 0 -9 77
7 120 26 57 24 90 55 90 85 0 26 -21 28 -96 12z"/>
<path d="M2622 5072 c-42 -37 -43 -38 -24 -55 29 -26 77 -32 116 -13 45 21 52
33 32 55 -9 10 -16 22 -16 28 0 10 -31 23 -55 23 -5 0 -29 -17 -53 -38z"/>
<path d="M2497 4998 c-15 -11 -16 -21 -7 -72 5 -33 13 -63 18 -68 8 -8 92 68
92 83 0 12 -63 69 -76 69 -5 0 -18 -6 -27 -12z"/>
<path d="M2761 4978 l-34 -22 28 -24 c35 -29 85 -26 141 9 l37 22 -49 14 c-84
24 -88 24 -123 1z"/>
<path d="M3040 4978 c-29 -8 -79 -42 -134 -89 -5 -5 3 -13 17 -18 54 -21 197
52 197 100 0 21 -23 24 -80 7z"/>
<path d="M2636 4915 c-9 -13 -16 -26 -16 -27 0 -2 20 -2 45 0 49 4 54 11 27
35 -25 23 -37 21 -56 -8z"/>
<path d="M2825 4863 c-18 -4 -54 -40 -55 -54 0 -4 14 -12 30 -19 35 -15 80 -1
80 24 0 23 -34 53 -55 49z"/>
<path d="M2712 4852 c-26 -4 -59 -59 -44 -74 6 -6 21 6 42 32 18 22 31 42 29
43 -2 2 -14 1 -27 -1z"/>
<path d="M3015 4835 c-22 -8 -49 -15 -61 -15 -29 0 -35 -9 -22 -34 21 -40 38
-45 93 -29 60 18 85 38 85 70 0 19 -5 23 -27 23 -16 -1 -46 -7 -68 -15z"/>
<path d="M2552 4820 c-25 -15 -32 -25 -27 -38 4 -9 10 -25 12 -34 3 -10 9 -18
14 -18 10 0 79 89 79 101 0 16 -44 9 -78 -11z"/>
<path d="M1458 4803 c-10 -2 -18 -11 -18 -19 0 -18 -9 -18 -53 1 -42 17 -169
20 -198 5 -28 -15 -25 -65 6 -96 37 -37 32 -46 -24 -38 -53 7 -81 -7 -81 -41
0 -32 47 -110 98 -162 21 -21 32 -39 28 -49 -11 -30 47 -114 67 -95 4 4 12 22
17 40 8 29 7 34 -10 38 -11 3 -20 11 -20 18 0 15 67 52 76 42 4 -4 1 -33 -6
-64 -8 -32 -13 -65 -11 -73 4 -24 52 -58 111 -79 30 -10 62 -22 71 -25 17 -7
65 34 96 81 14 21 13 28 -7 81 -31 78 -34 80 -96 88 -36 4 -54 11 -54 20 0 8
10 14 24 14 23 0 24 3 19 35 -7 44 8 46 38 3 33 -49 48 -58 96 -58 48 0 58
-18 21 -35 -13 -6 -21 -17 -19 -25 2 -8 4 -19 5 -25 1 -5 7 -24 14 -41 16 -39
136 -114 194 -121 40 -6 49 -22 23 -43 -28 -23 -9 -113 32 -151 23 -22 24 -22
59 -5 20 9 37 16 38 14 1 -2 7 -15 14 -30 13 -31 49 -38 58 -13 8 20 -22 65
-42 65 -12 0 -14 5 -9 18 4 9 10 27 12 40 8 33 33 28 33 -7 0 -16 6 -34 14
-40 12 -10 17 -6 27 23 7 20 17 36 21 36 4 0 8 7 8 16 0 9 9 27 20 41 28 36
25 45 -15 37 -39 -7 -46 6 -19 41 12 16 18 18 34 7 40 -25 90 -3 76 34 -6 16
-29 16 -67 0 -14 -6 -17 -1 -16 35 1 52 -22 73 -73 66 -57 -8 -90 -25 -108
-57 -20 -36 -34 -38 -47 -8 -12 26 -98 81 -167 106 -53 18 -57 26 -29 50 10
10 27 42 36 71 l18 55 -34 29 c-65 55 -120 88 -154 94 -28 4 -35 10 -35 28 0
17 -7 24 -31 29 -33 6 -34 6 -61 -1z"/>
<path d="M3534 4790 c-26 -10 -39 -41 -22 -52 7 -4 55 -8 106 -8 90 0 93 1
104 26 10 21 9 27 -3 35 -18 11 -157 11 -185 -1z"/>
<path d="M3800 4788 c-23 -12 -50 -62 -39 -72 2 -2 24 -7 49 -10 25 -4 77 -11
117 -17 49 -7 78 -7 91 0 20 11 49 68 39 77 -23 23 -223 40 -257 22z"/>
<path d="M1620 4779 c14 -5 62 -37 108 -70 l82 -60 37 18 c20 10 39 23 41 30
1 6 -32 28 -74 49 -64 32 -89 39 -148 41 -57 3 -66 1 -46 -8z"/>
<path d="M3368 4780 c-63 -6 -73 -12 -64 -36 5 -13 14 -15 44 -10 20 3 56 6
78 6 30 0 44 5 48 16 4 9 5 19 2 21 -7 8 -48 9 -108 3z"/>
<path d="M1107 4768 c-18 -9 -47 -65 -47 -88 0 -17 46 -11 63 8 18 19 21 45 9
74 -5 13 -11 14 -25 6z"/>
<path d="M2724 4749 c-19 -22 -19 -22 4 -10 12 6 22 16 22 21 0 15 -5 12 -26
-11z"/>
<path d="M3145 4745 c-64 -16 -85 -25 -85 -35 0 -18 20 -18 106 -1 65 13 90
22 92 35 4 20 -38 20 -113 1z"/>
<path d="M4123 4745 c-23 -16 -48 -78 -39 -94 3 -5 18 -12 33 -15 16 -4 72
-21 126 -38 81 -25 103 -28 120 -19 24 13 67 70 67 89 0 20 -43 40 -144 66
-114 30 -134 31 -163 11z"/>
<path d="M2594 4711 c-30 -27 -31 -30 -18 -60 7 -17 17 -31 22 -31 5 0 20 20
33 45 21 39 22 46 9 59 -13 13 -19 11 -46 -13z"/>
<path d="M2820 4730 c0 -15 39 -32 60 -25 37 12 23 35 -20 35 -22 0 -40 -4
-40 -10z"/>
<path d="M1921 4705 c47 -25 129 -55 129 -46 0 24 -79 61 -129 61 l-26 -1 26
-14z"/>
<path d="M2739 4694 c-14 -7 -33 -22 -43 -33 -29 -32 2 -37 59 -11 45 21 46
22 29 41 -9 10 -18 19 -18 18 -1 -1 -13 -7 -27 -15z"/>
<path d="M2943 4687 c-59 -21 -79 -41 -50 -52 19 -8 132 39 132 55 0 21 -15
20 -82 -3z"/>
<path d="M3275 4665 c-103 -14 -178 -32 -216 -51 -28 -14 -41 -51 -33 -100 2
-16 10 -77 18 -135 24 -170 37 -184 152 -156 255 63 308 94 399 228 28 41 53
76 56 79 3 3 19 29 35 57 28 50 28 53 11 70 -15 16 -39 18 -175 19 -86 1 -197
-4 -247 -11z"/>
<path d="M2100 4650 c0 -6 11 -16 25 -22 30 -14 33 -34 5 -41 -17 -4 -20 -14
-20 -71 0 -59 2 -66 19 -66 11 0 23 5 26 10 7 11 45 14 45 3 0 -3 -7 -14 -15
-23 -11 -13 -12 -24 -4 -54 10 -35 12 -37 40 -31 22 5 29 3 29 -9 0 -28 23
-30 47 -2 16 19 21 34 17 52 -5 19 -2 24 14 24 24 0 55 27 49 43 -4 14 -57 28
-57 16 0 -5 -7 -9 -15 -9 -10 0 -15 10 -15 33 0 37 -15 57 -42 57 -10 0 -18 7
-18 16 0 8 -16 22 -35 30 -19 8 -35 18 -35 23 0 4 -11 13 -25 19 -32 15 -35
15 -35 2z"/>
<path d="M4487 4630 c-15 -12 -34 -35 -43 -52 -21 -41 -17 -44 145 -117 127
-57 135 -60 166 -47 42 18 79 69 71 100 -6 25 -62 55 -181 99 -107 39 -127 41
-158 17z"/>
<path d="M1848 4623 c-32 -13 -39 -22 -57 -74 l-20 -59 62 -34 c33 -19 65 -32
69 -30 4 3 8 49 8 104 0 110 -4 116 -62 93z"/>
<path d="M1956 4624 c-8 -21 -8 -199 0 -207 4 -3 29 5 56 19 55 28 71 56 66
118 -3 37 -7 43 -48 63 -54 27 -66 28 -74 7z"/>
<path d="M2760 4607 c-63 -31 -80 -43 -80 -59 0 -16 33 -7 101 27 62 32 82 54
53 61 -5 2 -38 -12 -74 -29z"/>
<path d="M3850 4632 c-53 -17 -221 -212 -239 -277 -19 -71 21 -154 145 -299
93 -110 134 -126 252 -102 51 11 172 80 248 141 43 35 131 116 194 180 l115
116 -25 19 c-49 37 -337 150 -473 186 -88 23 -200 41 -217 36z"/>
<path d="M2635 4590 c-3 -5 -2 -10 4 -10 5 0 13 5 16 10 3 6 2 10 -4 10 -5 0
-13 -4 -16 -10z"/>
<path d="M2850 4546 c-123 -45 -283 -150 -362 -236 -103 -111 -167 -258 -184
-420 -9 -76 5 -88 84 -70 130 29 393 118 467 158 96 52 145 157 130 281 -12
105 -37 246 -48 266 -19 38 -33 41 -87 21z"/>
<path d="M2330 4521 c13 -11 29 -17 34 -14 11 8 -22 33 -43 33 -11 0 -9 -6 9
-19z"/>
<path d="M2573 4499 c-69 -45 -80 -56 -65 -71 6 -6 34 6 82 37 60 38 70 48 60
60 -7 8 -13 15 -14 15 -1 0 -29 -18 -63 -41z"/>
<path d="M2406 4501 c-7 -10 33 -23 47 -14 10 6 -11 23 -30 23 -6 0 -14 -4
-17 -9z"/>
<path d="M4894 4461 c-26 -12 -74 -74 -74 -98 0 -12 13 -26 33 -36 17 -9 60
-35 95 -56 34 -22 89 -56 121 -76 l59 -37 44 20 c52 23 98 65 98 88 0 30 -63
78 -181 137 -119 60 -160 72 -195 58z"/>
<path d="M2435 4408 c-11 -6 -44 -31 -73 -56 -42 -35 -50 -47 -41 -58 18 -22
37 -17 77 20 20 19 48 43 61 54 16 12 22 25 18 35 -7 20 -15 21 -42 5z"/>
<path d="M4625 4308 c-27 -17 -90 -72 -141 -122 -104 -104 -124 -143 -101
-198 12 -28 83 -129 136 -194 21 -26 102 -156 125 -203 14 -27 36 -57 48 -65
67 -47 252 11 502 158 131 77 169 112 161 145 -8 30 -141 169 -241 251 -129
106 -379 260 -421 260 -10 0 -40 -14 -68 -32z"/>
<path d="M1622 4238 c-15 -17 -33 -37 -39 -44 -27 -27 -4 -121 26 -109 27 10
161 98 161 106 0 3 -27 23 -60 43 l-60 35 -28 -31z"/>
<path d="M1315 4233 c45 -77 152 -163 202 -163 19 0 23 5 23 29 0 41 -26 66
-95 91 -33 12 -80 33 -104 47 l-43 25 17 -29z"/>
<path d="M2264 4250 c-18 -7 -34 -24 -100 -102 -30 -36 -53 -131 -34 -143 17
-10 91 -8 102 3 17 17 99 215 94 228 -6 15 -37 23 -62 14z"/>
<path d="M5290 4189 c-77 -69 -80 -72 -80 -86 0 -7 42 -57 93 -111 51 -53 109
-115 129 -137 45 -48 83 -50 166 -8 65 33 78 49 68 89 -11 48 -280 295 -319
294 -7 0 -32 -19 -57 -41z"/>
<path d="M3285 4177 c-173 -58 -258 -119 -309 -222 -40 -82 -50 -147 -50 -305
1 -223 23 -292 103 -319 42 -14 260 -15 332 -1 68 13 95 41 138 140 18 41 36
82 42 90 5 8 13 25 19 38 20 46 90 139 149 197 44 43 61 67 61 86 0 22 -68
143 -89 159 -4 3 -23 28 -43 55 -20 28 -50 63 -68 80 -28 27 -38 30 -108 33
-65 2 -92 -3 -177 -31z"/>
<path d="M1760 4128 c-93 -56 -140 -89 -140 -98 0 -18 83 -70 111 -70 27 0 28
-2 22 -32 -8 -43 -7 -42 -42 -30 -18 6 -31 7 -31 2 0 -10 52 -40 70 -40 5 0
19 -9 30 -20 12 -12 26 -17 36 -13 10 4 22 -1 30 -12 12 -17 15 -17 49 4 20
11 38 21 41 21 2 0 4 -13 4 -30 0 -26 -4 -30 -26 -30 -22 0 -25 -2 -14 -15 15
-18 40 -20 40 -4 0 6 9 9 19 6 12 -3 27 3 36 13 15 16 14 20 -10 48 -22 26
-24 35 -15 52 14 27 40 26 40 -2 1 -18 2 -20 9 -8 5 8 11 28 15 43 6 25 4 28
-12 22 -15 -4 -21 0 -26 20 -7 29 -28 32 -70 10 -35 -19 -56 -13 -56 15 0 23
-6 24 -40 5 -49 -28 -71 -7 -30 28 17 15 20 27 18 74 -2 31 -7 58 -13 60 -5 1
-26 -7 -45 -19z"/>
<path d="M1529 4022 c16 -31 83 -82 106 -82 17 1 14 6 -17 33 -20 18 -50 40
-68 51 -32 18 -32 18 -21 -2z"/>
<path d="M2080 3928 c-42 -70 -59 -272 -26 -322 9 -14 23 -26 31 -26 29 0 125
42 134 58 5 9 12 60 16 112 4 52 8 115 11 139 5 61 -6 71 -82 71 -62 0 -65 -1
-84 -32z"/>
<path d="M4112 3904 c-161 -43 -327 -150 -429 -276 -35 -43 -84 -136 -109
-209 -35 -101 -46 -194 -42 -357 5 -211 18 -231 158 -251 80 -12 356 -6 428 8
95 19 99 24 151 187 44 139 103 236 205 336 46 46 89 93 95 106 21 39 -11 119
-99 250 -88 131 -146 197 -185 212 -36 14 -110 11 -173 -6z"/>
<path d="M5704 3843 c-16 -8 -51 -27 -79 -42 -27 -14 -51 -34 -53 -43 -3 -16
175 -317 206 -348 37 -37 209 2 226 52 15 42 -38 133 -182 311 -68 83 -80 91
-118 70z"/>
<path d="M2720 3838 c-143 -31 -377 -117 -406 -149 -25 -28 -23 -86 11 -299
41 -265 90 -431 130 -447 51 -19 134 59 340 317 l67 85 -7 75 c-3 41 -9 147
-11 235 -3 107 -9 164 -17 172 -19 18 -57 22 -107 11z"/>
<path d="M5425 3733 c-22 -6 -41 -17 -135 -79 -86 -57 -121 -94 -122 -130 -1
-31 31 -98 151 -319 42 -77 87 -162 101 -189 14 -27 37 -58 51 -69 34 -25 175
-40 287 -32 100 8 117 20 108 79 -12 72 -73 241 -121 332 -73 140 -214 361
-247 389 -30 25 -37 27 -73 18z"/>
<path d="M1969 3711 c15 -27 31 -36 31 -17 0 8 -9 20 -21 26 -19 11 -20 10
-10 -9z"/>
<path d="M2148 3544 c-3 -3 -28 -8 -54 -12 -46 -7 -48 -9 -57 -47 -9 -39 -4
-209 9 -311 6 -49 5 -51 -20 -58 -23 -6 -25 -9 -16 -26 14 -26 30 -26 30 0 0
11 7 20 15 20 8 0 15 -3 15 -8 0 -4 9 -13 21 -20 25 -16 69 -4 135 36 62 38
65 50 44 193 -10 68 -20 142 -23 164 -8 65 -15 75 -56 75 -21 0 -40 -3 -43 -6z"/>
<path d="M4920 3469 c-149 -23 -294 -96 -402 -200 -130 -127 -200 -297 -200
-484 1 -99 24 -277 43 -318 21 -47 52 -52 329 -52 376 1 398 9 472 164 32 66
68 121 115 174 103 120 101 112 74 193 -48 148 -239 486 -290 513 -26 15 -86
19 -141 10z"/>
<path d="M1730 3360 c-22 -42 24 -56 60 -18 28 30 25 38 -15 38 -24 0 -37 -6
-45 -20z"/>
<path d="M5965 3362 c-97 -23 -115 -32 -115 -56 0 -27 85 -328 107 -378 19
-45 53 -58 156 -58 55 0 71 4 88 21 18 18 20 28 15 71 -14 102 -140 402 -172
409 -11 3 -46 -2 -79 -9z"/>
<path d="M1606 3354 c-3 -9 -6 -31 -6 -51 0 -27 4 -34 17 -31 19 3 63 63 63
84 0 20 -66 18 -74 -2z"/>
<path d="M1895 3353 c4 -10 10 -26 12 -35 5 -18 33 -25 33 -9 0 5 9 13 20 16
30 10 24 32 -11 39 -52 10 -62 8 -54 -11z"/>
<path d="M1526 3350 c-42 -7 -53 -30 -36 -79 7 -23 17 -41 22 -41 12 0 50 90
46 110 -2 11 -11 14 -32 10z"/>
<path d="M1822 3299 c-13 -16 -22 -37 -20 -46 4 -23 37 -28 62 -10 17 12 17
18 7 50 -7 21 -16 37 -19 36 -4 0 -17 -13 -30 -30z"/>
<path d="M1367 3301 c-60 -22 -71 -33 -63 -64 4 -19 15 -26 42 -31 19 -4 42
-10 49 -12 10 -4 19 10 29 47 26 88 25 90 -57 60z"/>
<path d="M1990 3279 c0 -30 3 -39 9 -30 5 8 7 26 4 40 -7 42 -13 37 -13 -10z"/>
<path d="M1694 3266 c-3 -8 -4 -31 -2 -52 3 -34 7 -39 29 -42 24 -3 27 1 31
34 3 27 -1 43 -14 56 -22 22 -37 23 -44 4z"/>
<path d="M1190 3216 c-57 -34 -56 -32 -52 -108 3 -50 11 -57 64 -51 35 4 49
11 54 25 8 27 6 150 -3 159 -4 4 -33 -7 -63 -25z"/>
<path d="M1920 3224 c-6 -14 -10 -37 -10 -51 0 -22 3 -24 27 -18 36 9 35 6 27
54 -8 47 -29 55 -44 15z"/>
<path d="M2885 3197 c-28 -29 -84 -92 -125 -142 -41 -49 -77 -92 -81 -95 -24
-21 -81 -110 -95 -147 -34 -88 2 -157 167 -320 103 -101 206 -189 264 -225 51
-31 91 -24 136 24 42 45 173 237 260 382 61 101 61 96 45 351 -14 217 -8 213
-301 219 l-219 4 -51 -51z"/>
<path d="M1553 3202 c-15 -21 -18 -33 -11 -51 10 -28 19 -21 38 27 18 45 0 61
-27 24z"/>
<path d="M1452 3185 c-18 -39 -15 -54 13 -61 36 -9 38 -3 17 45 l-19 41 -11
-25z"/>
<path d="M1636 3192 c-4 -13 -5 -26 -2 -29 10 -11 18 4 14 29 l-4 23 -8 -23z"/>
<path d="M1795 3180 c-10 -17 5 -30 35 -30 26 0 46 21 33 34 -10 10 -61 7 -68
-4z"/>
<path d="M1306 3138 c-12 -45 -6 -95 12 -111 10 -10 35 -17 55 -17 l37 0 0 46
c0 37 -5 51 -29 75 -35 35 -66 38 -75 7z"/>
<path d="M1060 3135 c-8 -9 -27 -23 -42 -31 -23 -12 -29 -21 -26 -42 3 -25 6
-27 53 -27 l50 0 -3 50 c-3 57 -13 73 -32 50z"/>
<path d="M1599 3096 c-6 -13 -9 -36 -5 -51 6 -22 11 -26 39 -23 52 5 49 60 -5
89 -15 8 -20 5 -29 -15z"/>
<path d="M1700 3115 c0 -21 34 -65 50 -65 22 0 18 22 -8 53 -14 16 -42 24 -42
12z"/>
<path d="M1806 3088 c9 -30 10 -32 29 -25 8 4 15 16 15 27 0 15 -7 20 -26 20
-22 0 -24 -3 -18 -22z"/>
<path d="M1900 3084 c-13 -32 -13 -41 1 -49 16 -10 68 15 74 36 9 27 -2 39
-36 39 -22 0 -32 -6 -39 -26z"/>
<path d="M1460 3038 c0 -37 5 -47 51 -89 l51 -47 -4 60 c-4 53 -9 65 -36 89
-46 41 -62 38 -62 -13z"/>
<path d="M2193 3027 c-63 -36 -73 -46 -73 -71 0 -65 106 -325 158 -383 10 -13
31 -23 44 -23 32 0 106 64 136 118 l22 40 -86 169 c-92 180 -100 193 -118 193
-6 0 -44 -19 -83 -43z"/>
<path d="M2032 3038 c-14 -14 -16 -54 -3 -62 28 -18 63 33 41 59 -15 18 -22
19 -38 3z"/>
<path d="M916 3021 c-21 -24 -14 -57 14 -64 26 -7 30 2 23 46 -6 42 -13 45
-37 18z"/>
<path d="M1207 3012 c-7 -10 13 -82 23 -82 3 0 19 13 34 28 21 23 24 31 14 40
-19 16 -65 25 -71 14z"/>
<path d="M1820 3007 c0 -21 42 -103 54 -105 36 -8 9 79 -30 97 -13 6 -24 10
-24 8z"/>
<path d="M1110 2973 c0 -16 -3 -44 -6 -63 -4 -32 -2 -36 30 -51 30 -14 36 -14
41 -2 18 48 -12 143 -46 143 -14 0 -19 -7 -19 -27z"/>
<path d="M1694 2994 c-12 -5 34 -156 53 -175 18 -18 41 5 49 46 14 79 -44 153
-102 129z"/>
<path d="M1941 2991 c-19 -12 -4 -53 17 -49 21 4 30 58 10 58 -7 0 -19 -4 -27
-9z"/>
<path d="M1023 2982 c-30 -4 -30 -35 -1 -62 31 -29 38 -25 38 19 0 44 -4 49
-37 43z"/>
<path d="M1605 2933 c-3 -21 -8 -50 -10 -65 -6 -35 28 -133 46 -133 50 0 51
160 1 218 -22 25 -30 21 -37 -20z"/>
<path d="M780 2889 c-36 -39 -66 -76 -68 -82 -1 -7 15 -22 37 -34 l39 -23 29
48 c48 78 70 163 41 161 -7 0 -42 -32 -78 -70z"/>
<path d="M1308 2931 c-32 -29 -32 -30 -14 -50 10 -11 35 -25 55 -32 20 -6 47
-22 61 -35 l26 -24 27 56 c31 62 28 73 -24 100 -46 23 -94 18 -131 -15z"/>
<path d="M6334 2952 c-13 -8 -35 -100 -25 -106 3 -2 22 -2 41 -1 37 2 46 18
49 88 1 23 -3 27 -26 27 -16 0 -33 -4 -39 -8z"/>
<path d="M6427 2908 c-2 -29 -4 -54 -2 -56 2 -2 17 -5 34 -7 36 -5 46 8 54 73
l5 42 -43 0 -42 0 -6 -52z"/>
<path d="M6545 2923 c-3 -21 -8 -48 -11 -60 -3 -15 2 -24 16 -28 29 -9 37 0
44 50 4 24 11 47 17 50 20 13 7 25 -26 25 -32 0 -35 -3 -40 -37z"/>
<path d="M6660 2940 c-30 -30 -26 -50 10 -50 46 0 39 -28 -7 -32 -35 -3 -38
-5 -35 -32 l3 -28 -63 3 c-60 4 -63 3 -66 -20 -2 -15 3 -28 12 -33 9 -5 16
-14 16 -20 0 -10 -35 -8 -102 8 -24 5 -28 3 -28 -15 0 -13 -6 -21 -16 -21 -14
0 -16 8 -10 55 l6 55 -45 0 c-51 0 -51 -1 -29 -76 14 -51 22 -59 51 -55 14 2
63 -45 63 -60 0 -7 -15 -8 -40 -4 -37 6 -40 5 -40 -17 0 -26 53 -64 83 -60 9
2 17 -3 17 -10 1 -35 76 -88 125 -88 16 0 25 -6 25 -15 0 -11 -11 -15 -37 -15
-75 0 -71 -16 16 -59 115 -59 181 -83 221 -83 19 0 46 -6 60 -13 41 -21 170
-2 170 26 0 6 -9 13 -20 16 -11 3 -20 12 -20 19 0 16 -3 15 71 19 91 4 121 32
79 70 -20 18 -27 45 -11 45 5 0 27 -6 49 -14 89 -32 91 45 2 128 -41 39 -49
51 -44 71 4 15 2 25 -5 25 -21 0 -11 37 19 65 17 16 30 35 30 42 0 7 7 13 15
13 8 0 15 4 15 9 0 13 -53 46 -69 42 -8 -1 -20 3 -25 11 -6 7 -30 22 -53 32
-35 15 -45 17 -58 6 -25 -21 -17 -39 20 -46 37 -7 49 -34 15 -34 -11 0 -23 -7
-26 -15 -9 -22 -34 -18 -34 5 0 14 -9 21 -37 25 -21 3 -46 8 -56 10 -10 2 -21
-3 -24 -11 -8 -21 -33 -17 -33 6 0 16 -7 20 -30 20 -20 0 -30 5 -30 15 0 8 9
15 20 15 16 0 50 43 50 65 0 9 -49 5 -55 -5 -9 -15 -35 -12 -35 4 0 7 -10 16
-22 20 -33 9 -36 8 -58 -14z"/>
<path d="M6270 2921 c0 -10 -9 -30 -20 -44 -14 -17 -17 -28 -9 -32 6 -4 14 -3
18 1 13 15 30 94 20 94 -5 0 -9 -8 -9 -19z"/>
<path d="M6855 2900 c-17 -33 -17 -34 43 -44 57 -10 99 35 50 53 -65 24 -77
23 -93 -9z"/>
<path d="M910 2902 c0 -6 -3 -18 -6 -26 -10 -25 61 -52 93 -35 12 7 23 15 23
18 -2 23 -110 66 -110 43z"/>
<path d="M1216 2854 c-10 -26 -6 -58 9 -78 13 -18 15 -17 39 10 32 37 32 38
-3 63 -35 25 -37 25 -45 5z"/>
<path d="M1496 2806 c-31 -70 -31 -68 -7 -131 13 -34 25 -51 39 -53 46 -7 55
124 14 204 l-20 39 -26 -59z"/>
<path d="M5563 2845 c-85 -19 -128 -41 -182 -95 -118 -118 -211 -313 -198
-414 8 -56 70 -222 93 -247 25 -28 50 -24 192 27 378 136 486 274 455 583 -12
118 -24 138 -94 152 -65 12 -195 9 -266 -6z"/>
<path d="M1036 2807 c-16 -12 -15 -16 18 -52 20 -21 38 -47 42 -57 3 -10 10
-18 15 -18 21 0 89 36 89 47 0 7 -18 31 -40 53 -43 43 -89 53 -124 27z"/>
<path d="M6006 2811 c-29 -11 -33 -33 -24 -134 13 -143 25 -191 56 -219 58
-53 235 -134 267 -122 28 11 23 80 -21 267 -36 156 -53 201 -79 211 -23 8
-176 6 -199 -3z"/>
<path d="M853 2767 c-28 -41 -29 -46 -16 -70 11 -22 21 -27 51 -27 62 0 142
-12 142 -22 0 -5 -12 -13 -26 -18 -25 -10 -26 -13 -19 -58 6 -41 18 -62 35
-62 3 1 20 14 38 31 28 25 32 35 27 59 -3 16 -13 34 -21 41 -8 6 -14 18 -14
27 0 36 -115 142 -155 142 -6 0 -25 -20 -42 -43z"/>
<path d="M6417 2796 c-7 -19 1 -26 30 -26 16 0 23 6 23 20 0 14 -7 20 -24 20
-13 0 -26 -6 -29 -14z"/>
<path d="M1299 2749 c-38 -40 -37 -59 6 -98 20 -18 50 -65 71 -111 38 -82 55
-96 75 -59 10 20 8 106 -3 149 -19 68 -76 150 -106 150 -8 0 -27 -14 -43 -31z"/>
<path d="M646 2731 c-14 -15 -26 -30 -26 -33 0 -3 14 -11 30 -18 17 -7 30 -16
30 -21 0 -18 25 -8 47 18 13 14 23 30 23 34 0 5 -17 17 -39 28 l-38 20 -27
-28z"/>
<path d="M3840 2720 c-163 -3 -252 -9 -266 -17 -42 -24 -126 -141 -248 -343
-105 -174 -108 -197 -32 -244 55 -35 293 -124 411 -154 191 -50 420 -79 454
-58 29 19 95 197 112 308 14 90 6 305 -15 371 -17 55 -15 49 -23 87 -8 43 -38
60 -98 58 -27 -1 -160 -5 -295 -8z"/>
<path d="M752 2634 c-18 -21 -32 -45 -32 -54 0 -10 19 -46 42 -80 35 -53 43
-60 49 -44 9 24 9 150 0 183 -10 37 -25 35 -59 -5z"/>
<path d="M1168 2652 c-40 -18 -47 -36 -24 -67 13 -18 14 -18 26 6 7 13 16 26
19 29 3 3 15 15 25 28 23 27 9 28 -46 4z"/>
<path d="M546 2594 c-21 -31 -36 -57 -34 -59 2 -2 23 -6 48 -10 40 -5 49 -3
78 22 17 16 32 34 32 40 0 14 -57 63 -74 63 -7 0 -30 -25 -50 -56z"/>
<path d="M860 2605 c0 -43 17 -65 50 -65 27 0 30 3 30 34 0 38 -7 46 -51 53
-26 4 -29 1 -29 -22z"/>
<path d="M1226 2589 c-30 -35 -31 -45 -11 -96 8 -21 21 -74 29 -118 25 -144
48 -169 82 -93 40 89 17 300 -36 328 -28 15 -36 13 -64 -21z"/>
<path d="M2448 2554 c-35 -36 -66 -73 -69 -82 -13 -36 84 -185 199 -304 111
-115 153 -120 210 -25 45 75 63 137 48 164 -20 37 -293 313 -310 313 -8 0 -44
-30 -78 -66z"/>
<path d="M1087 2504 l-38 -25 20 -28 c11 -15 29 -59 39 -97 18 -65 21 -69 53
-76 19 -3 36 -5 38 -2 17 16 -12 190 -37 223 -25 34 -32 35 -75 5z"/>
<path d="M6360 2501 c0 -11 4 -21 9 -21 18 0 21 18 6 30 -13 10 -15 9 -15 -9z"/>
<path d="M629 2489 c-42 -21 -62 -65 -26 -55 12 3 30 6 39 6 10 0 19 11 23 31
4 17 5 32 3 34 -1 2 -19 -5 -39 -16z"/>
<path d="M920 2489 c0 -11 87 -150 120 -192 31 -39 42 -18 23 46 -24 81 -60
126 -115 146 -18 7 -28 7 -28 0z"/>
<path d="M444 2433 c-68 -106 -94 -193 -58 -193 23 0 105 85 144 147 41 69 38
97 -12 101 -35 3 -38 0 -74 -55z"/>
<path d="M705 2450 c-8 -38 2 -52 33 -44 27 8 27 12 -2 48 l-24 29 -7 -33z"/>
<path d="M6410 2460 c0 -23 32 -43 54 -34 23 9 20 34 -3 34 -11 0 -23 5 -26
10 -10 17 -25 11 -25 -10z"/>
<path d="M855 2437 c-6 -31 -3 -47 16 -80 13 -23 26 -60 29 -82 3 -28 10 -41
23 -43 31 -6 87 8 87 21 0 13 -82 140 -124 192 l-24 30 -7 -38z"/>
<path d="M550 2336 c-29 -34 -52 -67 -49 -72 4 -9 7 -10 81 -20 l48 -7 16 39
c21 50 20 95 -2 111 -29 21 -37 16 -94 -51z"/>
<path d="M5993 2362 c-11 -7 -118 -103 -197 -177 -66 -61 -81 -108 -46 -140
11 -10 31 -37 45 -61 39 -67 53 -70 138 -33 192 84 331 165 362 213 29 43 -11
82 -160 159 -76 40 -123 52 -142 39z"/>
<path d="M723 2348 c-4 -7 -15 -36 -24 -65 l-16 -51 30 -6 c16 -3 56 -6 88 -6
52 0 59 2 59 20 0 32 -31 100 -51 110 -25 14 -76 12 -86 -2z"/>
<path d="M4895 2340 c-33 -4 -142 -8 -241 -9 -118 0 -191 -5 -208 -12 -33 -15
-61 -75 -116 -243 -25 -80 -39 -138 -35 -153 9 -38 47 -46 160 -33 55 6 123
13 150 16 178 18 457 68 540 97 50 17 53 36 25 143 -33 121 -72 173 -145 193
-44 12 -43 12 -130 1z"/>
<path d="M1085 2232 c-37 -7 -38 -20 -6 -70 17 -27 31 -52 31 -56 0 -14 41
-66 51 -66 18 0 41 73 36 113 -8 62 -49 91 -112 79z"/>
<path d="M2904 2212 c-16 -10 -94 -177 -94 -200 0 -26 198 -174 324 -241 83
-44 125 -49 152 -19 27 29 41 72 50 148 11 95 1 108 -134 181 -64 34 -148 80
-185 101 -69 38 -92 44 -113 30z"/>
<path d="M415 2164 c-17 -45 -17 -47 1 -57 24 -13 58 -47 71 -71 6 -10 15 -16
21 -12 12 7 42 91 42 118 0 31 -45 68 -83 68 -32 0 -36 -4 -52 -46z"/>
<path d="M598 2136 l-3 -56 47 -25 47 -26 6 23 c17 78 25 121 22 124 -2 2 -28
6 -59 10 l-56 7 -4 -57z"/>
<path d="M944 2180 c-11 -4 -27 -26 -36 -48 l-15 -39 44 -44 c25 -24 56 -64
69 -89 45 -86 67 -100 84 -54 23 60 -2 163 -60 243 -30 41 -47 47 -86 31z"/>
<path d="M765 2168 c-2 -7 -10 -43 -18 -80 -16 -77 -12 -86 43 -90 l34 -3 23
80 c12 44 23 86 23 93 0 8 -17 12 -50 12 -32 0 -52 -5 -55 -12z"/>
<path d="M5394 2022 c-111 -37 -208 -73 -216 -80 -12 -9 -14 -21 -8 -45 13
-51 70 -181 83 -189 13 -8 53 -4 162 17 69 14 81 16 140 30 112 26 215 83 215
119 0 34 -46 111 -97 162 -25 25 -65 54 -73 53 -3 0 -95 -31 -206 -67z"/>
<path d="M367 2063 c-2 -5 -17 -46 -32 -92 -26 -80 -27 -84 -9 -94 28 -16 65
-59 79 -92 l13 -29 14 34 c35 84 42 150 21 202 -20 50 -73 93 -86 71z"/>
<path d="M556 2013 c-13 -25 -12 -28 26 -60 48 -40 61 -41 76 -8 18 39 16 42
-38 69 l-50 25 -14 -26z"/>
<path d="M860 1959 l-22 -72 53 -53 c65 -64 100 -74 109 -29 5 29 -8 84 -32
129 -16 31 -69 96 -77 96 -5 0 -18 -32 -31 -71z"/>
<path d="M703 1931 c-10 -28 -9 -29 23 -36 40 -7 74 8 74 34 0 13 -10 20 -31
25 -49 10 -54 8 -66 -23z"/>
<path d="M3438 1948 c-15 -12 -58 -165 -58 -207 0 -28 27 -46 145 -96 220 -94
335 -119 371 -83 40 40 34 223 -9 264 -14 15 -68 35 -157 59 -74 20 -164 45
-199 56 -75 23 -73 22 -93 7z"/>
<path d="M506 1877 c-4 -29 -18 -76 -31 -104 -25 -54 -24 -63 7 -63 10 0 37
-9 58 -19 39 -19 41 -19 63 -1 27 22 29 88 3 137 -19 37 -74 103 -86 103 -4 0
-11 -24 -14 -53z"/>
<path d="M4880 1885 c-69 -13 -158 -29 -198 -35 -95 -16 -108 -32 -86 -110 8
-30 17 -70 19 -88 8 -52 22 -71 60 -78 32 -6 290 9 345 21 71 14 87 19 112 31
45 23 52 48 33 107 -30 92 -104 180 -148 176 -7 -1 -68 -12 -137 -24z"/>
<path d="M654 1837 c4 -12 9 -44 12 -72 8 -74 11 -80 30 -64 16 13 79 138 73
143 -2 2 -30 6 -63 9 -56 6 -58 5 -52 -16z"/>
<path d="M5804 1831 c-9 -16 -33 -38 -52 -49 l-35 -20 64 -47 63 -46 13 36 c7
20 21 48 31 63 l19 26 -39 33 c-22 18 -41 33 -43 33 -2 0 -12 -13 -21 -29z"/>
<path d="M295 1798 c-3 -18 -7 -43 -8 -55 -1 -13 -5 -23 -9 -23 -4 0 -6 -10
-4 -22 3 -13 5 -57 5 -99 l1 -76 43 7 c23 3 48 10 55 14 15 9 16 126 1 181
-11 41 -53 105 -69 105 -5 0 -12 -15 -15 -32z"/>
<path d="M807 1818 c-3 -7 -17 -39 -31 -70 l-25 -57 35 -43 c20 -24 44 -53 55
-65 12 -14 30 -23 48 -23 25 0 30 5 36 31 9 41 -1 93 -31 151 -37 73 -75 106
-87 76z"/>
<path d="M4005 1811 c-11 -13 -15 -41 -15 -113 0 -112 12 -134 75 -144 22 -3
43 -8 46 -10 12 -7 254 -34 307 -34 66 0 119 22 131 53 19 49 -36 212 -81 240
-18 11 -72 16 -235 20 -191 4 -214 3 -228 -12z"/>
<path d="M5910 1732 c-66 -109 -19 -220 120 -289 84 -40 129 -52 159 -41 30
11 23 40 -27 123 -44 72 -58 89 -139 168 -86 83 -87 84 -113 39z"/>
<path d="M5636 1707 c-15 -19 -26 -36 -26 -39 0 -2 16 -10 35 -18 19 -8 35
-17 35 -22 0 -4 13 -8 28 -8 20 0 32 8 45 29 l17 29 -42 31 c-23 17 -48 31
-54 31 -7 0 -24 -15 -38 -33z"/>
<path d="M5550 1710 c-12 -8 -12 -10 2 -15 19 -7 38 1 38 16 0 12 -21 11 -40
-1z"/>
<path d="M5420 1683 c0 -5 6 -16 13 -25 12 -15 14 -15 25 3 17 26 15 29 -13
29 -14 0 -25 -3 -25 -7z"/>
<path d="M5210 1634 c-23 -46 -21 -68 2 -42 64 69 62 65 40 77 -18 10 -23 6
-42 -35z"/>
<path d="M5340 1662 l-23 -19 28 -46 c15 -26 30 -47 33 -47 4 0 17 15 29 34
l22 33 -33 32 c-33 32 -33 32 -56 13z"/>
<path d="M440 1668 c-1 -2 -2 -35 -5 -73 -4 -70 -3 -71 25 -83 26 -12 31 -11
54 13 32 32 37 108 9 123 -20 10 -83 26 -83 20z"/>
<path d="M5492 1645 c-12 -27 -14 -26 56 -50 21 -8 15 53 -7 65 -29 15 -37 13
-49 -15z"/>
<path d="M630 1643 c-41 -16 -51 -72 -24 -126 39 -75 123 -167 154 -167 16 0
32 70 25 112 -7 40 -7 41 18 34 30 -7 41 6 33 40 -7 27 -33 32 -42 9 -10 -25
-19 -17 -44 36 -31 65 -66 83 -120 62z"/>
<path d="M5782 1625 c-15 -33 -15 -35 3 -35 8 0 15 -7 15 -15 0 -9 -9 -15 -25
-15 -22 0 -25 -4 -25 -36 0 -35 2 -37 70 -67 68 -30 91 -57 50 -57 -12 0 -38
9 -60 20 -51 26 -61 25 -92 -7 -41 -44 -61 -93 -39 -93 6 0 30 -13 54 -30 53
-35 67 -37 67 -10 0 11 7 20 15 20 11 0 15 -11 15 -38 0 -34 4 -40 45 -62 48
-26 57 -45 25 -53 -12 -3 -20 -14 -20 -25 0 -11 -11 -34 -25 -51 l-26 -30 53
-34 c101 -64 108 -67 132 -61 18 4 25 1 29 -15 6 -23 116 -61 178 -61 97 0
120 52 44 98 -60 36 -60 57 -2 48 63 -10 75 8 48 69 -11 25 -34 62 -51 83 -49
60 -35 85 22 36 43 -35 53 -19 29 47 -26 68 -71 119 -106 119 -37 0 -41 -25
-11 -68 25 -37 33 -62 19 -62 -19 0 -82 36 -79 46 2 6 -27 21 -65 34 -42 15
-69 30 -69 38 0 15 42 13 84 -4 39 -15 7 12 -48 40 -30 16 -64 37 -75 48 -11
10 -23 18 -27 18 -3 0 -20 15 -38 34 -17 19 -43 37 -58 41 -32 8 -38 35 -8 35
17 0 19 4 14 28 -6 25 -29 52 -44 52 -4 0 -12 -11 -18 -25z"/>
<path d="M5599 1623 c-6 -42 10 -67 62 -94 52 -26 59 -24 59 15 0 26 -5 36
-20 41 -11 3 -20 11 -20 16 0 5 -9 9 -21 9 -11 0 -29 5 -40 10 -10 6 -20 7
-20 3z"/>
<path d="M5265 1597 c-5 -7 -19 -23 -29 -35 -19 -22 -19 -23 4 -72 13 -28 29
-50 35 -50 12 0 70 64 70 78 0 15 -50 92 -60 92 -5 -1 -14 -6 -20 -13z"/>
<path d="M5426 1549 l-28 -40 27 -41 27 -41 44 44 c68 68 71 76 31 93 -68 28
-70 28 -101 -15z"/>
<path d="M5562 1488 l-34 -37 38 -33 c69 -61 64 -60 107 -6 21 27 37 51 35 52
-1 2 -28 16 -58 32 l-55 29 -33 -37z"/>
<path d="M521 1463 c-44 -54 -62 -94 -49 -111 17 -20 168 -3 168 19 0 9 -79
129 -85 129 -2 0 -17 -17 -34 -37z"/>
<path d="M295 1475 c-19 -15 -30 -65 -13 -65 4 0 8 -12 8 -26 0 -21 3 -25 18
-18 9 4 38 9 63 12 41 3 48 7 63 39 15 32 16 38 2 51 -22 22 -116 27 -141 7z"/>
<path d="M5327 1434 l-38 -43 17 -28 c10 -15 19 -30 21 -32 3 -5 82 48 89 60
6 10 -20 62 -38 75 -10 8 -23 -1 -51 -32z"/>
<path d="M5482 1407 c-8 -9 -6 -19 7 -35 l17 -23 19 21 c18 20 18 21 -1 35
-24 18 -29 18 -42 2z"/>
<path d="M5397 1331 c-25 -20 -46 -39 -47 -42 0 -3 9 -16 20 -29 11 -13 20
-27 20 -32 0 -4 4 -8 8 -8 11 0 92 75 92 85 0 4 -10 19 -23 35 l-23 27 -47
-36z"/>
<path d="M5552 1348 c-7 -7 -12 -19 -12 -27 0 -24 88 -111 105 -104 8 3 15 9
15 13 0 5 7 16 16 25 15 15 15 18 -4 36 -12 10 -24 19 -28 19 -3 0 -19 11 -36
25 -34 28 -39 30 -56 13z"/>
<path d="M333 1330 c-36 -15 -34 -56 8 -173 49 -135 102 -227 131 -227 18 0
30 89 24 184 -7 117 -21 167 -51 196 -26 24 -80 34 -112 20z"/>
<path d="M650 1315 c-7 -9 -1 -51 17 -114 2 -8 16 9 33 40 25 49 27 56 13 71
-16 18 -49 20 -63 3z"/>
<path d="M527 1280 c-12 -17 -11 -33 4 -113 10 -50 18 -104 18 -118 1 -15 8
-32 16 -39 12 -10 18 -6 34 21 51 83 48 207 -6 249 -32 25 -48 25 -66 0z"/>
<path d="M5463 1226 l-41 -41 23 -34 24 -34 10 25 c5 14 26 41 45 60 34 34 35
36 18 51 -25 23 -30 21 -79 -27z"/>
<path d="M5691 1218 l-33 -31 46 -44 c25 -23 57 -50 70 -58 23 -15 26 -15 50
10 25 25 37 85 17 85 -5 0 -32 16 -61 35 -29 19 -53 35 -54 35 0 0 -16 -14
-35 -32z"/>
<path d="M5565 1191 c-8 -14 40 -65 53 -57 17 10 15 19 -8 44 -22 24 -35 27
-45 13z"/>
<path d="M5517 1127 c-22 -33 -21 -39 4 -71 24 -30 49 -34 49 -8 0 10 5 23 11
29 8 8 3 20 -18 43 l-29 32 -17 -25z"/>
<path d="M5646 1105 c-6 -17 39 -75 59 -75 26 0 23 38 -4 64 -31 29 -46 33
-55 11z"/>
<path d="M5597 1040 c-22 -26 -21 -42 2 -69 15 -17 21 -19 27 -9 4 7 14 22 21
34 11 18 10 23 -10 42 -23 22 -23 22 -40 2z"/>
<path d="M5743 1025 c-7 -8 -13 -18 -13 -22 0 -11 88 -98 94 -92 2 2 11 18 20
36 16 31 15 33 -6 44 -12 6 -31 20 -42 30 -23 22 -37 23 -53 4z"/>
<path d="M5666 956 c-20 -31 -15 -44 33 -78 l38 -27 12 25 c12 28 9 36 -28 77
-32 33 -35 33 -55 3z"/>
<path d="M5867 916 c-16 -34 -16 -34 17 -68 18 -18 49 -48 68 -65 l36 -33 6
43 c4 23 13 53 20 66 13 24 12 26 -51 58 -35 18 -68 33 -72 33 -4 0 -15 -15
-24 -34z"/>
<path d="M5779 852 c-16 -28 -16 -28 32 -59 26 -18 50 -29 53 -26 15 15 3 42
-32 76 l-37 36 -16 -27z"/>
<path d="M5900 755 c0 -9 15 -22 35 -31 42 -17 45 -17 45 -1 0 7 -15 19 -32
27 -18 7 -36 15 -40 18 -5 2 -8 -4 -8 -13z"/>
</g>
</svg>
